<svg width="37" height="36" viewBox="0 0 37 36" fill="none" xmlns="http://www.w3.org/2000/svg">
<path d="M17.1844 0.156182C16.9242 0.286827 14.6953 2.35537 8.71172 8.00215C4.25391 12.2263 0.520312 15.7683 0.435937 15.8699C0.147656 16.211 0 16.6175 0 17.1038C0 17.7062 0.119531 17.9747 0.646875 18.5481C1.18125 19.1215 1.63125 19.3683 2.17266 19.3683C2.79844 19.3683 3.0375 19.2522 3.79688 18.5554L4.5 17.9094V34.5739L4.66875 34.9368C4.86562 35.3723 5.13281 35.6409 5.55469 35.8368C5.85703 35.982 5.99766 35.9893 9.42188 35.9893C12.8461 35.9893 12.9867 35.982 13.2891 35.8368C13.7109 35.6409 13.9781 35.3723 14.175 34.9368L14.3438 34.5739V22.7796H22.282L22.3031 28.7094C22.3242 34.6465 22.3242 34.6465 22.4789 34.9876C22.6617 35.3941 22.9219 35.6699 23.3086 35.8513C23.5688 35.9747 23.843 35.9893 27.3516 35.9893C30.8461 35.9893 31.1344 35.9747 31.3945 35.8513C31.7672 35.6772 32.1187 35.307 32.3016 34.9005C32.4492 34.5739 32.4492 34.5159 32.4703 26.3868L32.4844 18.1997L32.8852 18.5481C33.2578 18.8747 33.3 18.8965 33.6727 18.8965C34.1859 18.8892 34.6078 18.6425 35.2125 17.9965C35.7961 17.3578 36 16.9368 36 16.3417C36 15.4417 36.5203 15.9642 27.4289 7.75537C22.9078 3.66908 19.0828 0.257796 18.9352 0.177957C18.7523 0.0836025 18.4852 0.0255363 18.1055 0.0110202C17.6203 -0.018012 17.4937 0.00376212 17.1844 0.156182Z" fill="#85817E"/>
</svg>
