<svg width="41" height="35" viewBox="0 0 41 35" fill="none" xmlns="http://www.w3.org/2000/svg">
<path d="M9.15744 0.0450888C6.82507 0.466984 4.94644 2.20233 4.35738 4.49489C4.03897 5.72077 4.19022 7.36855 4.72356 8.54667C6.09272 11.5397 9.85794 12.8611 12.7953 11.3726L13.3843 11.0701L13.5595 10.3855C13.8938 9.06409 14.5784 7.87801 15.5814 6.89889L16.1864 6.30187L16.1625 5.68097C16.0988 4.03319 15.2948 2.40929 14.0132 1.35853C13.4241 0.864998 12.4371 0.355539 11.7286 0.164493C11.1395 0.0132475 9.73058 -0.0504351 9.15744 0.0450888Z" fill="white"/>
<path d="M29.5359 0.0452805C28.1428 0.30001 26.7259 1.12788 25.898 2.17864C25.1498 3.12591 24.6244 4.43936 24.5766 5.49012L24.5527 5.93589L25.0304 6.27818C26.3597 7.24934 27.4503 8.90508 27.8085 10.4812C28.0393 11.524 27.9757 11.4444 28.7239 11.6991C29.9976 12.129 31.6294 12.0653 32.8872 11.532C34.4633 10.8633 35.7449 9.47822 36.2464 7.90208C37.0185 5.48216 36.2862 2.91894 34.3916 1.35873C33.8026 0.86519 32.8155 0.355732 32.107 0.164685C31.518 0.0134392 30.109 -0.0502424 29.5359 0.0452805Z" fill="white"/>
<path d="M19.1714 6.34186C16.1624 7.11401 14.2121 10.1071 14.7455 13.1479C15.2151 15.8464 17.2609 17.7888 19.9833 18.1231C22.8013 18.4654 25.4998 16.73 26.3834 14.0156C26.6381 13.2355 26.7257 11.9061 26.5824 11.0623C26.1764 8.73791 24.2819 6.77968 21.9654 6.28614C21.2013 6.12693 19.8958 6.15082 19.1714 6.34186Z" fill="white"/>
<path d="M6.80918 12.3917C4.039 12.6862 1.57927 14.525 0.536475 17.0882C0.0270162 18.338 0.0429368 18.2027 0.0110957 22.4694C-0.00482491 24.6266 -0.00482491 26.3938 0.0190559 26.3938C0.0349765 26.3938 0.624038 26.553 1.31658 26.752C3.56138 27.3888 6.29176 27.9063 8.0271 28.0257C8.44104 28.0575 8.84701 28.0973 8.92662 28.1212C9.04602 28.153 9.06194 28.0734 9.06194 27.1739C9.0699 25.8286 9.18135 24.754 9.42016 23.8624C10.1605 21.0923 12.2699 18.7758 14.9924 17.7569C15.3028 17.6375 15.5655 17.534 15.5814 17.5181C15.5973 17.5022 15.3904 17.2474 15.1277 16.9529C14.2282 15.9499 13.5117 14.3658 13.3844 13.0603C13.3287 12.4792 13.3048 12.4235 13.1217 12.3757C12.8431 12.2961 7.56541 12.3121 6.80918 12.3917Z" fill="white"/>
<path d="M28.0074 12.5985C28.0074 13.108 27.7208 14.302 27.4501 14.9468C27.1477 15.6792 26.7019 16.3876 26.1606 17.0244C25.9377 17.2792 25.7705 17.5021 25.7864 17.51C25.8024 17.5259 26.1128 17.6533 26.471 17.7966C28.8432 18.728 30.7457 20.6703 31.6452 23.0583C32.083 24.2205 32.1547 24.6902 32.2024 26.4972L32.2422 28.1609L33.094 28.1052C35.6492 27.946 38.1965 27.3887 40.0911 26.5768L40.7518 26.2902L40.72 22.4215C40.6881 18.2105 40.704 18.3379 40.1946 17.0881C39.3269 14.9468 37.3926 13.2354 35.1637 12.6224C34.2482 12.3756 33.2612 12.304 30.5387 12.304H28.0074V12.5985Z" fill="white"/>
<path d="M16.5527 18.6802C14.2521 19.1658 12.278 20.6862 11.2511 22.7718C10.5188 24.2683 10.4153 25.0405 10.4153 29.3152V32.5152L11.1954 32.754C13.4482 33.4465 15.4462 33.8605 17.9776 34.1709C19.3547 34.3301 22.905 34.354 24.1468 34.2028C26.7179 33.9003 28.7956 33.3908 30.3399 32.6903L30.8812 32.4435L30.8493 28.6465C30.8175 24.5629 30.8255 24.6345 30.3717 23.4007C29.6712 21.4982 27.8005 19.6673 25.8662 18.9827C24.6324 18.5449 24.2343 18.513 20.6124 18.521C17.6273 18.521 17.2293 18.5369 16.5527 18.6802Z" fill="white"/>
</svg>
