<svg width="34" height="34" viewBox="0 0 34 34" fill="none" xmlns="http://www.w3.org/2000/svg">
<path d="M23.6761 15.8346L21.1829 15.5242C20.9522 15.1308 20.6949 14.7549 20.413 14.3991C20.9604 11.9005 21.2606 11.3343 20.579 10.8886C17.8915 9.12794 17.5489 8.69689 16.9132 9.2083L14.9356 10.8156C14.5019 10.7105 14.0618 10.6361 13.6183 10.5927C12.2975 8.43389 12.1174 7.80559 11.3334 7.99189C8.2151 8.72247 7.68891 8.66037 7.59355 9.48592L7.29338 12.0539C6.91345 12.293 6.55 12.5591 6.20567 12.8502C3.78657 12.284 3.23919 11.9735 2.81187 12.6785C1.09908 15.4767 0.692958 15.8164 1.18737 16.4703L2.73771 18.5195C2.63413 18.9657 2.55863 19.4184 2.51169 19.8747L0.392779 21.2665C-0.295868 21.7085 -0.00628353 22.1834 0.700021 25.4016C0.876597 26.2125 1.48402 26.1139 3.94902 26.4207C4.18176 26.8127 4.43893 27.1885 4.71889 27.5458L4.16445 30.0809C3.98787 30.8955 4.5176 31.0234 7.20509 32.7877C7.88314 33.2334 8.24689 32.7147 10.1998 31.1293C10.632 31.2382 11.071 31.3163 11.5135 31.3631C12.8131 33.5183 12.9968 34.1503 13.7667 33.9713C16.8779 33.2407 17.4112 33.3064 17.5065 32.4809L17.8103 29.8946C18.1893 29.6555 18.5527 29.3907 18.898 29.102C21.3171 29.6645 21.8609 29.975 22.2918 29.27C23.9975 26.4755 24.4107 26.1322 23.9163 25.4783L22.3624 23.4327C22.47 22.9833 22.5479 22.5268 22.5955 22.0665C24.6897 20.6966 25.2865 20.5177 25.1099 19.7031C24.4177 16.4849 24.4742 15.9333 23.6761 15.8346ZM12.5589 24.9669C11.7948 24.9669 11.0478 24.7325 10.4124 24.2934C9.77709 23.8543 9.2819 23.2301 8.98948 22.4999C8.69706 21.7697 8.62055 20.9662 8.76963 20.191C8.9187 19.4158 9.28666 18.7037 9.82698 18.1448C10.3673 17.5859 11.0557 17.2053 11.8051 17.0511C12.5546 16.8969 13.3314 16.9761 14.0374 17.2785C14.7433 17.581 15.3467 18.0932 15.7712 18.7504C16.1958 19.4076 16.4224 20.1802 16.4224 20.9706C16.4224 21.4954 16.3224 22.0151 16.1283 22.4999C15.9341 22.9848 15.6495 23.4253 15.2908 23.7964C14.932 24.1675 14.5061 24.4619 14.0374 24.6627C13.5686 24.8635 13.0662 24.9669 12.5589 24.9669ZM32.0282 11.1845C31.9663 11.4027 31.8932 11.6173 31.8092 11.8274C32.4943 13.1132 33.0276 13.7452 32.3919 14.3552C30.3013 16.357 31.0923 16.2072 27.8857 14.8045L28.5708 13.1242L30.2942 13.8548L30.6862 13.4895L30.054 12.306C29.7291 11.6923 30.1671 11.4841 30.4072 10.3078C30.5308 9.73066 30.9016 9.67587 32.173 9.11333L32.12 8.20741L30.7992 7.81289C30.1529 7.61929 30.3189 7.15537 29.6938 6.13622C29.3866 5.63577 29.6091 5.32893 30.1353 3.98466L29.5102 3.39655L28.3059 4.08329C27.7162 4.41936 27.5113 3.97005 26.3742 3.718C25.8162 3.57554 25.7738 3.19564 25.2159 1.86233L24.3612 1.91712C23.9728 3.30888 23.9657 3.69243 23.4254 3.88969C21.5819 4.56547 22.7191 4.98556 20.2788 3.9737L19.6996 4.64949L20.3635 5.89513L18.8167 6.77547C17.3653 4.05041 17.2134 4.7956 19.3712 2.27876C19.9044 1.65777 20.5048 2.09612 21.8115 2.64405C22.0043 2.53398 22.2023 2.434 22.4048 2.34451C23.1111 -0.212512 22.659 0.192959 25.7491 0.00300893C26.5331 -0.0517845 26.6532 0.642265 27.2288 2.04498C27.4372 2.10708 27.6455 2.18379 27.8504 2.2678C30.0576 1.01121 29.4572 0.890662 31.8198 3.05683C32.4025 3.5938 32.0246 4.1527 31.4667 5.58098C31.5664 5.78556 31.6559 5.99527 31.7351 6.20927C33.1653 6.63666 33.8257 6.67319 33.8752 7.48048C34.0623 10.6914 34.3625 10.1581 32.0282 11.1845ZM27.2747 6.68415C26.8119 6.25905 26.2375 5.98552 25.6243 5.89816C25.011 5.8108 24.3866 5.91354 23.8298 6.19338C23.2731 6.47322 22.8091 6.91759 22.4965 7.47026C22.184 8.02293 22.037 8.65907 22.074 9.29819C22.1111 9.93732 22.3306 10.5507 22.7048 11.0608C23.079 11.5708 23.591 11.9546 24.1761 12.1636C24.7612 12.3726 25.3931 12.3973 25.9918 12.2348C26.5905 12.0722 27.1292 11.7296 27.5396 11.2503C28.0885 10.6078 28.3688 9.76647 28.3192 8.91061C28.2696 8.05474 27.894 7.25413 27.2747 6.68415ZM24.2977 10.1617C24.129 10.0085 23.9995 9.81458 23.9207 9.59716C23.8419 9.37973 23.8162 9.14555 23.8459 8.91539C23.8757 8.68524 23.9599 8.46625 24.0911 8.27786C24.2223 8.08947 24.3965 7.93752 24.5982 7.83551C24.7999 7.7335 25.0227 7.68457 25.2471 7.69309C25.4714 7.70161 25.6902 7.7673 25.8841 7.88433C26.078 8.00136 26.241 8.16611 26.3585 8.36394C26.476 8.56177 26.5445 8.78656 26.5578 9.01835C26.5738 9.29609 26.51 9.57251 26.3744 9.81282C26.2389 10.0531 26.0376 10.2466 25.796 10.3688C25.5543 10.491 25.2831 10.5366 25.0165 10.4998C24.7499 10.4629 24.4998 10.3453 24.2977 10.1617Z" fill="#85817E"/>
</svg>
