<svg width="29" height="33" viewBox="0 0 29 33" fill="none" xmlns="http://www.w3.org/2000/svg">
<path d="M12.7289 0.0933075C9.26027 0.675638 6.36128 3.59994 5.79161 7.08126C5.67135 7.85348 5.67135 9.22069 5.79161 9.99291C6.36128 13.5059 9.27293 16.4175 12.7859 16.9872C13.5581 17.1075 14.9253 17.1075 15.6975 16.9872C19.2105 16.4175 22.1222 13.5059 22.6918 9.99291C22.8121 9.22069 22.8121 7.85348 22.6918 7.08126C22.1222 3.5683 19.2105 0.656649 15.6975 0.0869789C14.957 -0.0332851 13.4568 -0.0269566 12.7289 0.0933075Z" fill="#85817E"/>
<path d="M10.5389 19.0825C6.89934 19.6585 3.77881 21.7347 1.82294 24.8868C0.683604 26.7098 0 29.0518 0 31.0899C0 31.8685 0.0632967 32.0457 0.417758 32.2799C0.594989 32.3938 0.987428 32.4001 14.2418 32.4001C27.4961 32.4001 27.8885 32.3938 28.0658 32.2799C28.4202 32.0457 28.4835 31.8685 28.4835 31.0772C28.4835 27.9694 27.034 24.6906 24.6414 22.3993C22.8881 20.7156 20.9385 19.6965 18.4447 19.1585C17.856 19.0319 17.6155 19.0256 14.4633 19.0066C11.7985 18.9939 10.9883 19.0066 10.5389 19.0825Z" fill="#85817E"/>
</svg>
